G04 #@! TF.GenerationSoftware,KiCad,Pcbnew,(5.1.2)-1*
G04 #@! TF.CreationDate,2019-10-14T05:56:34-04:00*
G04 #@! TF.ProjectId,HP_9915A_Keyboard,48505f39-3931-4354-915f-4b6579626f61,rev?*
G04 #@! TF.SameCoordinates,Original*
G04 #@! TF.FileFunction,Legend,Top*
G04 #@! TF.FilePolarity,Positive*
%FSLAX46Y46*%
G04 Gerber Fmt 4.6, Leading zero omitted, Abs format (unit mm)*
G04 Created by KiCad (PCBNEW (5.1.2)-1) date 2019-10-14 05:56:34*
%MOMM*%
%LPD*%
G04 APERTURE LIST*
%ADD10C,0.400000*%
%ADD11C,0.120000*%
%ADD12C,0.150000*%
G04 APERTURE END LIST*
D10*
X304000000Y-196214285D02*
X304285714Y-196357142D01*
X304857142Y-196357142D01*
X305142857Y-196214285D01*
X305285714Y-195928571D01*
X305285714Y-195785714D01*
X305142857Y-195500000D01*
X304857142Y-195357142D01*
X304428571Y-195357142D01*
X304142857Y-195214285D01*
X304000000Y-194928571D01*
X304000000Y-194785714D01*
X304142857Y-194500000D01*
X304428571Y-194357142D01*
X304857142Y-194357142D01*
X305142857Y-194500000D01*
X306571428Y-194357142D02*
X306571428Y-197357142D01*
X306571428Y-194500000D02*
X306857142Y-194357142D01*
X307428571Y-194357142D01*
X307714285Y-194500000D01*
X307857142Y-194642857D01*
X308000000Y-194928571D01*
X308000000Y-195785714D01*
X307857142Y-196071428D01*
X307714285Y-196214285D01*
X307428571Y-196357142D01*
X306857142Y-196357142D01*
X306571428Y-196214285D01*
X309714285Y-196357142D02*
X309428571Y-196214285D01*
X309285714Y-196071428D01*
X309142857Y-195785714D01*
X309142857Y-194928571D01*
X309285714Y-194642857D01*
X309428571Y-194500000D01*
X309714285Y-194357142D01*
X310142857Y-194357142D01*
X310428571Y-194500000D01*
X310571428Y-194642857D01*
X310714285Y-194928571D01*
X310714285Y-195785714D01*
X310571428Y-196071428D01*
X310428571Y-196214285D01*
X310142857Y-196357142D01*
X309714285Y-196357142D01*
X312428571Y-196357142D02*
X312142857Y-196214285D01*
X312000000Y-196071428D01*
X311857142Y-195785714D01*
X311857142Y-194928571D01*
X312000000Y-194642857D01*
X312142857Y-194500000D01*
X312428571Y-194357142D01*
X312857142Y-194357142D01*
X313142857Y-194500000D01*
X313285714Y-194642857D01*
X313428571Y-194928571D01*
X313428571Y-195785714D01*
X313285714Y-196071428D01*
X313142857Y-196214285D01*
X312857142Y-196357142D01*
X312428571Y-196357142D01*
X315142857Y-196357142D02*
X314857142Y-196214285D01*
X314714285Y-195928571D01*
X314714285Y-193357142D01*
X317571428Y-194357142D02*
X317571428Y-197357142D01*
X317571428Y-196214285D02*
X317285714Y-196357142D01*
X316714285Y-196357142D01*
X316428571Y-196214285D01*
X316285714Y-196071428D01*
X316142857Y-195785714D01*
X316142857Y-194928571D01*
X316285714Y-194642857D01*
X316428571Y-194500000D01*
X316714285Y-194357142D01*
X317285714Y-194357142D01*
X317571428Y-194500000D01*
X320285714Y-194357142D02*
X320285714Y-196357142D01*
X319000000Y-194357142D02*
X319000000Y-195928571D01*
X319142857Y-196214285D01*
X319428571Y-196357142D01*
X319857142Y-196357142D01*
X320142857Y-196214285D01*
X320285714Y-196071428D01*
X322857142Y-196214285D02*
X322571428Y-196357142D01*
X322000000Y-196357142D01*
X321714285Y-196214285D01*
X321571428Y-195928571D01*
X321571428Y-194785714D01*
X321714285Y-194500000D01*
X322000000Y-194357142D01*
X322571428Y-194357142D01*
X322857142Y-194500000D01*
X323000000Y-194785714D01*
X323000000Y-195071428D01*
X321571428Y-195357142D01*
X325571428Y-194357142D02*
X325571428Y-196357142D01*
X324285714Y-194357142D02*
X324285714Y-195928571D01*
X324428571Y-196214285D01*
X324714285Y-196357142D01*
X325142857Y-196357142D01*
X325428571Y-196214285D01*
X325571428Y-196071428D01*
X328142857Y-196214285D02*
X327857142Y-196357142D01*
X327285714Y-196357142D01*
X327000000Y-196214285D01*
X326857142Y-195928571D01*
X326857142Y-194785714D01*
X327000000Y-194500000D01*
X327285714Y-194357142D01*
X327857142Y-194357142D01*
X328142857Y-194500000D01*
X328285714Y-194785714D01*
X328285714Y-195071428D01*
X326857142Y-195357142D01*
X329571428Y-196071428D02*
X329714285Y-196214285D01*
X329571428Y-196357142D01*
X329428571Y-196214285D01*
X329571428Y-196071428D01*
X329571428Y-196357142D01*
X332285714Y-196214285D02*
X332000000Y-196357142D01*
X331428571Y-196357142D01*
X331142857Y-196214285D01*
X331000000Y-196071428D01*
X330857142Y-195785714D01*
X330857142Y-194928571D01*
X331000000Y-194642857D01*
X331142857Y-194500000D01*
X331428571Y-194357142D01*
X332000000Y-194357142D01*
X332285714Y-194500000D01*
X334000000Y-196357142D02*
X333714285Y-196214285D01*
X333571428Y-196071428D01*
X333428571Y-195785714D01*
X333428571Y-194928571D01*
X333571428Y-194642857D01*
X333714285Y-194500000D01*
X334000000Y-194357142D01*
X334428571Y-194357142D01*
X334714285Y-194500000D01*
X334857142Y-194642857D01*
X335000000Y-194928571D01*
X335000000Y-195785714D01*
X334857142Y-196071428D01*
X334714285Y-196214285D01*
X334428571Y-196357142D01*
X334000000Y-196357142D01*
X336285714Y-196357142D02*
X336285714Y-194357142D01*
X336285714Y-194642857D02*
X336428571Y-194500000D01*
X336714285Y-194357142D01*
X337142857Y-194357142D01*
X337428571Y-194500000D01*
X337571428Y-194785714D01*
X337571428Y-196357142D01*
X337571428Y-194785714D02*
X337714285Y-194500000D01*
X338000000Y-194357142D01*
X338428571Y-194357142D01*
X338714285Y-194500000D01*
X338857142Y-194785714D01*
X338857142Y-196357142D01*
X76500000Y-196071428D02*
X76357142Y-196214285D01*
X75928571Y-196357142D01*
X75642857Y-196357142D01*
X75214285Y-196214285D01*
X74928571Y-195928571D01*
X74785714Y-195642857D01*
X74642857Y-195071428D01*
X74642857Y-194642857D01*
X74785714Y-194071428D01*
X74928571Y-193785714D01*
X75214285Y-193500000D01*
X75642857Y-193357142D01*
X75928571Y-193357142D01*
X76357142Y-193500000D01*
X76500000Y-193642857D01*
X78214285Y-196357142D02*
X77928571Y-196214285D01*
X77785714Y-196071428D01*
X77642857Y-195785714D01*
X77642857Y-194928571D01*
X77785714Y-194642857D01*
X77928571Y-194500000D01*
X78214285Y-194357142D01*
X78642857Y-194357142D01*
X78928571Y-194500000D01*
X79071428Y-194642857D01*
X79214285Y-194928571D01*
X79214285Y-195785714D01*
X79071428Y-196071428D01*
X78928571Y-196214285D01*
X78642857Y-196357142D01*
X78214285Y-196357142D01*
X80500000Y-194357142D02*
X80500000Y-196357142D01*
X80500000Y-194642857D02*
X80642857Y-194500000D01*
X80928571Y-194357142D01*
X81357142Y-194357142D01*
X81642857Y-194500000D01*
X81785714Y-194785714D01*
X81785714Y-196357142D01*
X83214285Y-194357142D02*
X83214285Y-196357142D01*
X83214285Y-194642857D02*
X83357142Y-194500000D01*
X83642857Y-194357142D01*
X84071428Y-194357142D01*
X84357142Y-194500000D01*
X84500000Y-194785714D01*
X84500000Y-196357142D01*
X86357142Y-196357142D02*
X86071428Y-196214285D01*
X85928571Y-196071428D01*
X85785714Y-195785714D01*
X85785714Y-194928571D01*
X85928571Y-194642857D01*
X86071428Y-194500000D01*
X86357142Y-194357142D01*
X86785714Y-194357142D01*
X87071428Y-194500000D01*
X87214285Y-194642857D01*
X87357142Y-194928571D01*
X87357142Y-195785714D01*
X87214285Y-196071428D01*
X87071428Y-196214285D01*
X86785714Y-196357142D01*
X86357142Y-196357142D01*
X88642857Y-196357142D02*
X88642857Y-194357142D01*
X88642857Y-194928571D02*
X88785714Y-194642857D01*
X88928571Y-194500000D01*
X89214285Y-194357142D01*
X89500000Y-194357142D01*
X92785714Y-196357142D02*
X92785714Y-193357142D01*
X94500000Y-196357142D02*
X93214285Y-194642857D01*
X94500000Y-193357142D02*
X92785714Y-195071428D01*
X95785714Y-196357142D02*
X95785714Y-194357142D01*
X95785714Y-194928571D02*
X95928571Y-194642857D01*
X96071428Y-194500000D01*
X96357142Y-194357142D01*
X96642857Y-194357142D01*
X98928571Y-194357142D02*
X98928571Y-196357142D01*
X97642857Y-194357142D02*
X97642857Y-195928571D01*
X97785714Y-196214285D01*
X98071428Y-196357142D01*
X98500000Y-196357142D01*
X98785714Y-196214285D01*
X98928571Y-196071428D01*
X100357142Y-196357142D02*
X100357142Y-193357142D01*
X100642857Y-195214285D02*
X101500000Y-196357142D01*
X101500000Y-194357142D02*
X100357142Y-195500000D01*
X103214285Y-196357142D02*
X102928571Y-196214285D01*
X102785714Y-196071428D01*
X102642857Y-195785714D01*
X102642857Y-194928571D01*
X102785714Y-194642857D01*
X102928571Y-194500000D01*
X103214285Y-194357142D01*
X103642857Y-194357142D01*
X103928571Y-194500000D01*
X104071428Y-194642857D01*
X104214285Y-194928571D01*
X104214285Y-195785714D01*
X104071428Y-196071428D01*
X103928571Y-196214285D01*
X103642857Y-196357142D01*
X103214285Y-196357142D01*
X105357142Y-196214285D02*
X105642857Y-196357142D01*
X106214285Y-196357142D01*
X106500000Y-196214285D01*
X106642857Y-195928571D01*
X106642857Y-195785714D01*
X106500000Y-195500000D01*
X106214285Y-195357142D01*
X105785714Y-195357142D01*
X105500000Y-195214285D01*
X105357142Y-194928571D01*
X105357142Y-194785714D01*
X105500000Y-194500000D01*
X105785714Y-194357142D01*
X106214285Y-194357142D01*
X106500000Y-194500000D01*
X107928571Y-196357142D02*
X107928571Y-193357142D01*
X108214285Y-195214285D02*
X109071428Y-196357142D01*
X109071428Y-194357142D02*
X107928571Y-195500000D01*
X110071428Y-194357142D02*
X110785714Y-196357142D01*
X111500000Y-194357142D02*
X110785714Y-196357142D01*
X110500000Y-197071428D01*
X110357142Y-197214285D01*
X110071428Y-197357142D01*
X285071428Y-78357142D02*
X285071428Y-75357142D01*
X285071428Y-76785714D02*
X286785714Y-76785714D01*
X286785714Y-78357142D02*
X286785714Y-75357142D01*
X288214285Y-78357142D02*
X288214285Y-75357142D01*
X289357142Y-75357142D01*
X289642857Y-75500000D01*
X289785714Y-75642857D01*
X289928571Y-75928571D01*
X289928571Y-76357142D01*
X289785714Y-76642857D01*
X289642857Y-76785714D01*
X289357142Y-76928571D01*
X288214285Y-76928571D01*
X293642857Y-78357142D02*
X294214285Y-78357142D01*
X294500000Y-78214285D01*
X294642857Y-78071428D01*
X294928571Y-77642857D01*
X295071428Y-77071428D01*
X295071428Y-75928571D01*
X294928571Y-75642857D01*
X294785714Y-75500000D01*
X294500000Y-75357142D01*
X293928571Y-75357142D01*
X293642857Y-75500000D01*
X293500000Y-75642857D01*
X293357142Y-75928571D01*
X293357142Y-76642857D01*
X293500000Y-76928571D01*
X293642857Y-77071428D01*
X293928571Y-77214285D01*
X294500000Y-77214285D01*
X294785714Y-77071428D01*
X294928571Y-76928571D01*
X295071428Y-76642857D01*
X296500000Y-78357142D02*
X297071428Y-78357142D01*
X297357142Y-78214285D01*
X297500000Y-78071428D01*
X297785714Y-77642857D01*
X297928571Y-77071428D01*
X297928571Y-75928571D01*
X297785714Y-75642857D01*
X297642857Y-75500000D01*
X297357142Y-75357142D01*
X296785714Y-75357142D01*
X296500000Y-75500000D01*
X296357142Y-75642857D01*
X296214285Y-75928571D01*
X296214285Y-76642857D01*
X296357142Y-76928571D01*
X296500000Y-77071428D01*
X296785714Y-77214285D01*
X297357142Y-77214285D01*
X297642857Y-77071428D01*
X297785714Y-76928571D01*
X297928571Y-76642857D01*
X300785714Y-78357142D02*
X299071428Y-78357142D01*
X299928571Y-78357142D02*
X299928571Y-75357142D01*
X299642857Y-75785714D01*
X299357142Y-76071428D01*
X299071428Y-76214285D01*
X303500000Y-75357142D02*
X302071428Y-75357142D01*
X301928571Y-76785714D01*
X302071428Y-76642857D01*
X302357142Y-76500000D01*
X303071428Y-76500000D01*
X303357142Y-76642857D01*
X303500000Y-76785714D01*
X303642857Y-77071428D01*
X303642857Y-77785714D01*
X303500000Y-78071428D01*
X303357142Y-78214285D01*
X303071428Y-78357142D01*
X302357142Y-78357142D01*
X302071428Y-78214285D01*
X301928571Y-78071428D01*
X304785714Y-77500000D02*
X306214285Y-77500000D01*
X304500000Y-78357142D02*
X305500000Y-75357142D01*
X306500000Y-78357142D01*
X309785714Y-78357142D02*
X309785714Y-75357142D01*
X311500000Y-78357142D02*
X310214285Y-76642857D01*
X311500000Y-75357142D02*
X309785714Y-77071428D01*
X313928571Y-78214285D02*
X313642857Y-78357142D01*
X313071428Y-78357142D01*
X312785714Y-78214285D01*
X312642857Y-77928571D01*
X312642857Y-76785714D01*
X312785714Y-76500000D01*
X313071428Y-76357142D01*
X313642857Y-76357142D01*
X313928571Y-76500000D01*
X314071428Y-76785714D01*
X314071428Y-77071428D01*
X312642857Y-77357142D01*
X315071428Y-76357142D02*
X315785714Y-78357142D01*
X316500000Y-76357142D02*
X315785714Y-78357142D01*
X315500000Y-79071428D01*
X315357142Y-79214285D01*
X315071428Y-79357142D01*
X317642857Y-78357142D02*
X317642857Y-75357142D01*
X317642857Y-76500000D02*
X317928571Y-76357142D01*
X318500000Y-76357142D01*
X318785714Y-76500000D01*
X318928571Y-76642857D01*
X319071428Y-76928571D01*
X319071428Y-77785714D01*
X318928571Y-78071428D01*
X318785714Y-78214285D01*
X318500000Y-78357142D01*
X317928571Y-78357142D01*
X317642857Y-78214285D01*
X320785714Y-78357142D02*
X320500000Y-78214285D01*
X320357142Y-78071428D01*
X320214285Y-77785714D01*
X320214285Y-76928571D01*
X320357142Y-76642857D01*
X320500000Y-76500000D01*
X320785714Y-76357142D01*
X321214285Y-76357142D01*
X321500000Y-76500000D01*
X321642857Y-76642857D01*
X321785714Y-76928571D01*
X321785714Y-77785714D01*
X321642857Y-78071428D01*
X321500000Y-78214285D01*
X321214285Y-78357142D01*
X320785714Y-78357142D01*
X324357142Y-78357142D02*
X324357142Y-76785714D01*
X324214285Y-76500000D01*
X323928571Y-76357142D01*
X323357142Y-76357142D01*
X323071428Y-76500000D01*
X324357142Y-78214285D02*
X324071428Y-78357142D01*
X323357142Y-78357142D01*
X323071428Y-78214285D01*
X322928571Y-77928571D01*
X322928571Y-77642857D01*
X323071428Y-77357142D01*
X323357142Y-77214285D01*
X324071428Y-77214285D01*
X324357142Y-77071428D01*
X325785714Y-78357142D02*
X325785714Y-76357142D01*
X325785714Y-76928571D02*
X325928571Y-76642857D01*
X326071428Y-76500000D01*
X326357142Y-76357142D01*
X326642857Y-76357142D01*
X328928571Y-78357142D02*
X328928571Y-75357142D01*
X328928571Y-78214285D02*
X328642857Y-78357142D01*
X328071428Y-78357142D01*
X327785714Y-78214285D01*
X327642857Y-78071428D01*
X327500000Y-77785714D01*
X327500000Y-76928571D01*
X327642857Y-76642857D01*
X327785714Y-76500000D01*
X328071428Y-76357142D01*
X328642857Y-76357142D01*
X328928571Y-76500000D01*
D11*
X264414000Y-167640000D02*
X278384000Y-167640000D01*
X278384000Y-167640000D02*
X278384000Y-181610000D01*
X278384000Y-181610000D02*
X264414000Y-181610000D01*
X264414000Y-181610000D02*
X264414000Y-167640000D01*
X254889000Y-91440000D02*
X268859000Y-91440000D01*
X268859000Y-91440000D02*
X268859000Y-105410000D01*
X268859000Y-105410000D02*
X254889000Y-105410000D01*
X254889000Y-105410000D02*
X254889000Y-91440000D01*
X240665000Y-124460000D02*
X240665000Y-110490000D01*
X254635000Y-124460000D02*
X240665000Y-124460000D01*
X254635000Y-110490000D02*
X254635000Y-124460000D01*
X240665000Y-110490000D02*
X254635000Y-110490000D01*
X226314000Y-167640000D02*
X240284000Y-167640000D01*
X240284000Y-167640000D02*
X240284000Y-181610000D01*
X240284000Y-181610000D02*
X226314000Y-181610000D01*
X226314000Y-181610000D02*
X226314000Y-167640000D01*
X83439000Y-162560000D02*
X83439000Y-148590000D01*
X97409000Y-162560000D02*
X83439000Y-162560000D01*
X97409000Y-148590000D02*
X97409000Y-162560000D01*
X83439000Y-148590000D02*
X97409000Y-148590000D01*
X88138000Y-181610000D02*
X88138000Y-167640000D01*
X102108000Y-181610000D02*
X88138000Y-181610000D01*
X102108000Y-167640000D02*
X102108000Y-181610000D01*
X88138000Y-167640000D02*
X102108000Y-167640000D01*
X307340000Y-167640000D02*
X321310000Y-167640000D01*
X321310000Y-167640000D02*
X321310000Y-181610000D01*
X321310000Y-181610000D02*
X307340000Y-181610000D01*
X307340000Y-181610000D02*
X307340000Y-167640000D01*
X64389000Y-148590000D02*
X78359000Y-148590000D01*
X78359000Y-148590000D02*
X78359000Y-162560000D01*
X78359000Y-162560000D02*
X64389000Y-162560000D01*
X64389000Y-162560000D02*
X64389000Y-148590000D01*
X69215000Y-110490000D02*
X83185000Y-110490000D01*
X83185000Y-110490000D02*
X83185000Y-124460000D01*
X83185000Y-124460000D02*
X69215000Y-124460000D01*
X69215000Y-124460000D02*
X69215000Y-110490000D01*
X78613000Y-91440000D02*
X92583000Y-91440000D01*
X92583000Y-91440000D02*
X92583000Y-105410000D01*
X92583000Y-105410000D02*
X78613000Y-105410000D01*
X78613000Y-105410000D02*
X78613000Y-91440000D01*
X107188000Y-105410000D02*
X107188000Y-91440000D01*
X121158000Y-105410000D02*
X107188000Y-105410000D01*
X121158000Y-91440000D02*
X121158000Y-105410000D01*
X107188000Y-91440000D02*
X121158000Y-91440000D01*
X135763000Y-91440000D02*
X149733000Y-91440000D01*
X149733000Y-91440000D02*
X149733000Y-105410000D01*
X149733000Y-105410000D02*
X135763000Y-105410000D01*
X135763000Y-105410000D02*
X135763000Y-91440000D01*
X164338000Y-105410000D02*
X164338000Y-91440000D01*
X178308000Y-105410000D02*
X164338000Y-105410000D01*
X178308000Y-91440000D02*
X178308000Y-105410000D01*
X164338000Y-91440000D02*
X178308000Y-91440000D01*
X235839000Y-105410000D02*
X235839000Y-91440000D01*
X249809000Y-105410000D02*
X235839000Y-105410000D01*
X249809000Y-91440000D02*
X249809000Y-105410000D01*
X235839000Y-91440000D02*
X249809000Y-91440000D01*
X273939000Y-105410000D02*
X273939000Y-91440000D01*
X287909000Y-105410000D02*
X273939000Y-105410000D01*
X287909000Y-91440000D02*
X287909000Y-105410000D01*
X273939000Y-91440000D02*
X287909000Y-91440000D01*
X292989000Y-91440000D02*
X306959000Y-91440000D01*
X306959000Y-91440000D02*
X306959000Y-105410000D01*
X306959000Y-105410000D02*
X292989000Y-105410000D01*
X292989000Y-105410000D02*
X292989000Y-91440000D01*
X312039000Y-91440000D02*
X326009000Y-91440000D01*
X326009000Y-91440000D02*
X326009000Y-105410000D01*
X326009000Y-105410000D02*
X312039000Y-105410000D01*
X312039000Y-105410000D02*
X312039000Y-91440000D01*
X331089000Y-105410000D02*
X331089000Y-91440000D01*
X345059000Y-105410000D02*
X331089000Y-105410000D01*
X345059000Y-91440000D02*
X345059000Y-105410000D01*
X331089000Y-91440000D02*
X345059000Y-91440000D01*
X316865000Y-110490000D02*
X330835000Y-110490000D01*
X330835000Y-110490000D02*
X330835000Y-124460000D01*
X330835000Y-124460000D02*
X316865000Y-124460000D01*
X316865000Y-124460000D02*
X316865000Y-110490000D01*
X266827000Y-200660000D02*
X266827000Y-186690000D01*
X280797000Y-200660000D02*
X266827000Y-200660000D01*
X280797000Y-186690000D02*
X280797000Y-200660000D01*
X266827000Y-186690000D02*
X280797000Y-186690000D01*
X88265000Y-124460000D02*
X88265000Y-110490000D01*
X102235000Y-124460000D02*
X88265000Y-124460000D01*
X102235000Y-110490000D02*
X102235000Y-124460000D01*
X88265000Y-110490000D02*
X102235000Y-110490000D01*
X107315000Y-110490000D02*
X121285000Y-110490000D01*
X121285000Y-110490000D02*
X121285000Y-124460000D01*
X121285000Y-124460000D02*
X107315000Y-124460000D01*
X107315000Y-124460000D02*
X107315000Y-110490000D01*
X126365000Y-124460000D02*
X126365000Y-110490000D01*
X140335000Y-124460000D02*
X126365000Y-124460000D01*
X140335000Y-110490000D02*
X140335000Y-124460000D01*
X126365000Y-110490000D02*
X140335000Y-110490000D01*
X145415000Y-110490000D02*
X159385000Y-110490000D01*
X159385000Y-110490000D02*
X159385000Y-124460000D01*
X159385000Y-124460000D02*
X145415000Y-124460000D01*
X145415000Y-124460000D02*
X145415000Y-110490000D01*
X164465000Y-124460000D02*
X164465000Y-110490000D01*
X178435000Y-124460000D02*
X164465000Y-124460000D01*
X178435000Y-110490000D02*
X178435000Y-124460000D01*
X164465000Y-110490000D02*
X178435000Y-110490000D01*
X183515000Y-110490000D02*
X197485000Y-110490000D01*
X197485000Y-110490000D02*
X197485000Y-124460000D01*
X197485000Y-124460000D02*
X183515000Y-124460000D01*
X183515000Y-124460000D02*
X183515000Y-110490000D01*
X202565000Y-124460000D02*
X202565000Y-110490000D01*
X216535000Y-124460000D02*
X202565000Y-124460000D01*
X216535000Y-110490000D02*
X216535000Y-124460000D01*
X202565000Y-110490000D02*
X216535000Y-110490000D01*
X221615000Y-110490000D02*
X235585000Y-110490000D01*
X235585000Y-110490000D02*
X235585000Y-124460000D01*
X235585000Y-124460000D02*
X221615000Y-124460000D01*
X221615000Y-124460000D02*
X221615000Y-110490000D01*
X259715000Y-124460000D02*
X259715000Y-110490000D01*
X273685000Y-124460000D02*
X259715000Y-124460000D01*
X273685000Y-110490000D02*
X273685000Y-124460000D01*
X259715000Y-110490000D02*
X273685000Y-110490000D01*
X278765000Y-110490000D02*
X292735000Y-110490000D01*
X292735000Y-110490000D02*
X292735000Y-124460000D01*
X292735000Y-124460000D02*
X278765000Y-124460000D01*
X278765000Y-124460000D02*
X278765000Y-110490000D01*
X297815000Y-124460000D02*
X297815000Y-110490000D01*
X311785000Y-124460000D02*
X297815000Y-124460000D01*
X311785000Y-110490000D02*
X311785000Y-124460000D01*
X297815000Y-110490000D02*
X311785000Y-110490000D01*
X335915000Y-110490000D02*
X349885000Y-110490000D01*
X349885000Y-110490000D02*
X349885000Y-124460000D01*
X349885000Y-124460000D02*
X335915000Y-124460000D01*
X335915000Y-124460000D02*
X335915000Y-110490000D01*
X128651000Y-200660000D02*
X128651000Y-186690000D01*
X142621000Y-200660000D02*
X128651000Y-200660000D01*
X142621000Y-186690000D02*
X142621000Y-200660000D01*
X128651000Y-186690000D02*
X142621000Y-186690000D01*
X97790000Y-143510000D02*
X97790000Y-129540000D01*
X111760000Y-143510000D02*
X97790000Y-143510000D01*
X111760000Y-129540000D02*
X111760000Y-143510000D01*
X97790000Y-129540000D02*
X111760000Y-129540000D01*
X116840000Y-129540000D02*
X130810000Y-129540000D01*
X130810000Y-129540000D02*
X130810000Y-143510000D01*
X130810000Y-143510000D02*
X116840000Y-143510000D01*
X116840000Y-143510000D02*
X116840000Y-129540000D01*
X135890000Y-143510000D02*
X135890000Y-129540000D01*
X149860000Y-143510000D02*
X135890000Y-143510000D01*
X149860000Y-129540000D02*
X149860000Y-143510000D01*
X135890000Y-129540000D02*
X149860000Y-129540000D01*
X154940000Y-129540000D02*
X168910000Y-129540000D01*
X168910000Y-129540000D02*
X168910000Y-143510000D01*
X168910000Y-143510000D02*
X154940000Y-143510000D01*
X154940000Y-143510000D02*
X154940000Y-129540000D01*
X173990000Y-143510000D02*
X173990000Y-129540000D01*
X187960000Y-143510000D02*
X173990000Y-143510000D01*
X187960000Y-129540000D02*
X187960000Y-143510000D01*
X173990000Y-129540000D02*
X187960000Y-129540000D01*
X193040000Y-129540000D02*
X207010000Y-129540000D01*
X207010000Y-129540000D02*
X207010000Y-143510000D01*
X207010000Y-143510000D02*
X193040000Y-143510000D01*
X193040000Y-143510000D02*
X193040000Y-129540000D01*
X212090000Y-143510000D02*
X212090000Y-129540000D01*
X226060000Y-143510000D02*
X212090000Y-143510000D01*
X226060000Y-129540000D02*
X226060000Y-143510000D01*
X212090000Y-129540000D02*
X226060000Y-129540000D01*
X231140000Y-129540000D02*
X245110000Y-129540000D01*
X245110000Y-129540000D02*
X245110000Y-143510000D01*
X245110000Y-143510000D02*
X231140000Y-143510000D01*
X231140000Y-143510000D02*
X231140000Y-129540000D01*
X250190000Y-129540000D02*
X264160000Y-129540000D01*
X264160000Y-129540000D02*
X264160000Y-143510000D01*
X264160000Y-143510000D02*
X250190000Y-143510000D01*
X250190000Y-143510000D02*
X250190000Y-129540000D01*
X269240000Y-143510000D02*
X269240000Y-129540000D01*
X283210000Y-143510000D02*
X269240000Y-143510000D01*
X283210000Y-129540000D02*
X283210000Y-143510000D01*
X269240000Y-129540000D02*
X283210000Y-129540000D01*
X288290000Y-143510000D02*
X288290000Y-129540000D01*
X302260000Y-143510000D02*
X288290000Y-143510000D01*
X302260000Y-129540000D02*
X302260000Y-143510000D01*
X288290000Y-129540000D02*
X302260000Y-129540000D01*
X307340000Y-129540000D02*
X321310000Y-129540000D01*
X321310000Y-129540000D02*
X321310000Y-143510000D01*
X321310000Y-143510000D02*
X307340000Y-143510000D01*
X307340000Y-143510000D02*
X307340000Y-129540000D01*
X335915000Y-143510000D02*
X335915000Y-129540000D01*
X349885000Y-143510000D02*
X335915000Y-143510000D01*
X349885000Y-129540000D02*
X349885000Y-143510000D01*
X335915000Y-129540000D02*
X349885000Y-129540000D01*
X102489000Y-162560000D02*
X102489000Y-148590000D01*
X116459000Y-162560000D02*
X102489000Y-162560000D01*
X116459000Y-148590000D02*
X116459000Y-162560000D01*
X102489000Y-148590000D02*
X116459000Y-148590000D01*
X121539000Y-148590000D02*
X135509000Y-148590000D01*
X135509000Y-148590000D02*
X135509000Y-162560000D01*
X135509000Y-162560000D02*
X121539000Y-162560000D01*
X121539000Y-162560000D02*
X121539000Y-148590000D01*
X140652500Y-162560000D02*
X140652500Y-148590000D01*
X154622500Y-162560000D02*
X140652500Y-162560000D01*
X154622500Y-148590000D02*
X154622500Y-162560000D01*
X140652500Y-148590000D02*
X154622500Y-148590000D01*
X159702500Y-148590000D02*
X173672500Y-148590000D01*
X173672500Y-148590000D02*
X173672500Y-162560000D01*
X173672500Y-162560000D02*
X159702500Y-162560000D01*
X159702500Y-162560000D02*
X159702500Y-148590000D01*
X178752500Y-162560000D02*
X178752500Y-148590000D01*
X192722500Y-162560000D02*
X178752500Y-162560000D01*
X192722500Y-148590000D02*
X192722500Y-162560000D01*
X178752500Y-148590000D02*
X192722500Y-148590000D01*
X197802500Y-148590000D02*
X211772500Y-148590000D01*
X211772500Y-148590000D02*
X211772500Y-162560000D01*
X211772500Y-162560000D02*
X197802500Y-162560000D01*
X197802500Y-162560000D02*
X197802500Y-148590000D01*
X216852500Y-162560000D02*
X216852500Y-148590000D01*
X230822500Y-162560000D02*
X216852500Y-162560000D01*
X230822500Y-148590000D02*
X230822500Y-162560000D01*
X216852500Y-148590000D02*
X230822500Y-148590000D01*
X235902500Y-148590000D02*
X249872500Y-148590000D01*
X249872500Y-148590000D02*
X249872500Y-162560000D01*
X249872500Y-162560000D02*
X235902500Y-162560000D01*
X235902500Y-162560000D02*
X235902500Y-148590000D01*
X254952500Y-162560000D02*
X254952500Y-148590000D01*
X268922500Y-162560000D02*
X254952500Y-162560000D01*
X268922500Y-148590000D02*
X268922500Y-162560000D01*
X254952500Y-148590000D02*
X268922500Y-148590000D01*
X274002500Y-148590000D02*
X287972500Y-148590000D01*
X287972500Y-148590000D02*
X287972500Y-162560000D01*
X287972500Y-162560000D02*
X274002500Y-162560000D01*
X274002500Y-162560000D02*
X274002500Y-148590000D01*
X293052500Y-148590000D02*
X307022500Y-148590000D01*
X307022500Y-148590000D02*
X307022500Y-162560000D01*
X307022500Y-162560000D02*
X293052500Y-162560000D01*
X293052500Y-162560000D02*
X293052500Y-148590000D01*
X321691000Y-148590000D02*
X335661000Y-148590000D01*
X335661000Y-148590000D02*
X335661000Y-162560000D01*
X335661000Y-162560000D02*
X321691000Y-162560000D01*
X321691000Y-162560000D02*
X321691000Y-148590000D01*
X197739000Y-186690000D02*
X211709000Y-186690000D01*
X211709000Y-186690000D02*
X211709000Y-200660000D01*
X211709000Y-200660000D02*
X197739000Y-200660000D01*
X197739000Y-200660000D02*
X197739000Y-186690000D01*
X112014000Y-167640000D02*
X125984000Y-167640000D01*
X125984000Y-167640000D02*
X125984000Y-181610000D01*
X125984000Y-181610000D02*
X112014000Y-181610000D01*
X112014000Y-181610000D02*
X112014000Y-167640000D01*
X131064000Y-181610000D02*
X131064000Y-167640000D01*
X145034000Y-181610000D02*
X131064000Y-181610000D01*
X145034000Y-167640000D02*
X145034000Y-181610000D01*
X131064000Y-167640000D02*
X145034000Y-167640000D01*
X150114000Y-167640000D02*
X164084000Y-167640000D01*
X164084000Y-167640000D02*
X164084000Y-181610000D01*
X164084000Y-181610000D02*
X150114000Y-181610000D01*
X150114000Y-181610000D02*
X150114000Y-167640000D01*
X169164000Y-181610000D02*
X169164000Y-167640000D01*
X183134000Y-181610000D02*
X169164000Y-181610000D01*
X183134000Y-167640000D02*
X183134000Y-181610000D01*
X169164000Y-167640000D02*
X183134000Y-167640000D01*
X188214000Y-167640000D02*
X202184000Y-167640000D01*
X202184000Y-167640000D02*
X202184000Y-181610000D01*
X202184000Y-181610000D02*
X188214000Y-181610000D01*
X188214000Y-181610000D02*
X188214000Y-167640000D01*
X207264000Y-181610000D02*
X207264000Y-167640000D01*
X221234000Y-181610000D02*
X207264000Y-181610000D01*
X221234000Y-167640000D02*
X221234000Y-181610000D01*
X207264000Y-167640000D02*
X221234000Y-167640000D01*
X245364000Y-181610000D02*
X245364000Y-167640000D01*
X259334000Y-181610000D02*
X245364000Y-181610000D01*
X259334000Y-167640000D02*
X259334000Y-181610000D01*
X245364000Y-167640000D02*
X259334000Y-167640000D01*
X283464000Y-181610000D02*
X283464000Y-167640000D01*
X297434000Y-181610000D02*
X283464000Y-181610000D01*
X297434000Y-167640000D02*
X297434000Y-181610000D01*
X283464000Y-167640000D02*
X297434000Y-167640000D01*
X73914000Y-129540000D02*
X87884000Y-129540000D01*
X87884000Y-129540000D02*
X87884000Y-143510000D01*
X87884000Y-143510000D02*
X73914000Y-143510000D01*
X73914000Y-143510000D02*
X73914000Y-129540000D01*
X331216000Y-167640000D02*
X345186000Y-167640000D01*
X345186000Y-167640000D02*
X345186000Y-181610000D01*
X345186000Y-181610000D02*
X331216000Y-181610000D01*
X331216000Y-181610000D02*
X331216000Y-167640000D01*
X343670000Y-71270000D02*
X346330000Y-71270000D01*
X343670000Y-71270000D02*
X343670000Y-73870000D01*
X343670000Y-73870000D02*
X346330000Y-73870000D01*
X346330000Y-71270000D02*
X346330000Y-73870000D01*
X346330000Y-68670000D02*
X346330000Y-70000000D01*
X345000000Y-68670000D02*
X346330000Y-68670000D01*
D12*
X271399000Y-182856142D02*
X271446619Y-182903761D01*
X271399000Y-182951380D01*
X271351380Y-182903761D01*
X271399000Y-182856142D01*
X271399000Y-182951380D01*
X261635904Y-106751380D02*
X261635904Y-105751380D01*
X261635904Y-106703761D02*
X261540666Y-106751380D01*
X261350190Y-106751380D01*
X261254952Y-106703761D01*
X261207333Y-106656142D01*
X261159714Y-106560904D01*
X261159714Y-106275190D01*
X261207333Y-106179952D01*
X261254952Y-106132333D01*
X261350190Y-106084714D01*
X261540666Y-106084714D01*
X261635904Y-106132333D01*
X262540666Y-106751380D02*
X262540666Y-106227571D01*
X262493047Y-106132333D01*
X262397809Y-106084714D01*
X262207333Y-106084714D01*
X262112095Y-106132333D01*
X262540666Y-106703761D02*
X262445428Y-106751380D01*
X262207333Y-106751380D01*
X262112095Y-106703761D01*
X262064476Y-106608523D01*
X262064476Y-106513285D01*
X262112095Y-106418047D01*
X262207333Y-106370428D01*
X262445428Y-106370428D01*
X262540666Y-106322809D01*
X247459523Y-125801380D02*
X247650000Y-125801380D01*
X247745238Y-125753761D01*
X247792857Y-125706142D01*
X247888095Y-125563285D01*
X247935714Y-125372809D01*
X247935714Y-124991857D01*
X247888095Y-124896619D01*
X247840476Y-124849000D01*
X247745238Y-124801380D01*
X247554761Y-124801380D01*
X247459523Y-124849000D01*
X247411904Y-124896619D01*
X247364285Y-124991857D01*
X247364285Y-125229952D01*
X247411904Y-125325190D01*
X247459523Y-125372809D01*
X247554761Y-125420428D01*
X247745238Y-125420428D01*
X247840476Y-125372809D01*
X247888095Y-125325190D01*
X247935714Y-125229952D01*
X232965666Y-182951380D02*
X232965666Y-181951380D01*
X233299000Y-182665666D01*
X233632333Y-181951380D01*
X233632333Y-182951380D01*
X89447809Y-163806142D02*
X89400190Y-163853761D01*
X89257333Y-163901380D01*
X89162095Y-163901380D01*
X89019238Y-163853761D01*
X88924000Y-163758523D01*
X88876380Y-163663285D01*
X88828761Y-163472809D01*
X88828761Y-163329952D01*
X88876380Y-163139476D01*
X88924000Y-163044238D01*
X89019238Y-162949000D01*
X89162095Y-162901380D01*
X89257333Y-162901380D01*
X89400190Y-162949000D01*
X89447809Y-162996619D01*
X89733523Y-162901380D02*
X90304952Y-162901380D01*
X90019238Y-163901380D02*
X90019238Y-162901380D01*
X91209714Y-163901380D02*
X90876380Y-163425190D01*
X90638285Y-163901380D02*
X90638285Y-162901380D01*
X91019238Y-162901380D01*
X91114476Y-162949000D01*
X91162095Y-162996619D01*
X91209714Y-163091857D01*
X91209714Y-163234714D01*
X91162095Y-163329952D01*
X91114476Y-163377571D01*
X91019238Y-163425190D01*
X90638285Y-163425190D01*
X92114476Y-163901380D02*
X91638285Y-163901380D01*
X91638285Y-162901380D01*
X93265857Y-182903761D02*
X93408714Y-182951380D01*
X93646809Y-182951380D01*
X93742047Y-182903761D01*
X93789666Y-182856142D01*
X93837285Y-182760904D01*
X93837285Y-182665666D01*
X93789666Y-182570428D01*
X93742047Y-182522809D01*
X93646809Y-182475190D01*
X93456333Y-182427571D01*
X93361095Y-182379952D01*
X93313476Y-182332333D01*
X93265857Y-182237095D01*
X93265857Y-182141857D01*
X93313476Y-182046619D01*
X93361095Y-181999000D01*
X93456333Y-181951380D01*
X93694428Y-181951380D01*
X93837285Y-181999000D01*
X94265857Y-182951380D02*
X94265857Y-181951380D01*
X94265857Y-182427571D02*
X94837285Y-182427571D01*
X94837285Y-182951380D02*
X94837285Y-181951380D01*
X95313476Y-182951380D02*
X95313476Y-181951380D01*
X96123000Y-182427571D02*
X95789666Y-182427571D01*
X95789666Y-182951380D02*
X95789666Y-181951380D01*
X96265857Y-181951380D01*
X96503952Y-181951380D02*
X97075380Y-181951380D01*
X96789666Y-182951380D02*
X96789666Y-181951380D01*
X312467857Y-182903761D02*
X312610714Y-182951380D01*
X312848809Y-182951380D01*
X312944047Y-182903761D01*
X312991666Y-182856142D01*
X313039285Y-182760904D01*
X313039285Y-182665666D01*
X312991666Y-182570428D01*
X312944047Y-182522809D01*
X312848809Y-182475190D01*
X312658333Y-182427571D01*
X312563095Y-182379952D01*
X312515476Y-182332333D01*
X312467857Y-182237095D01*
X312467857Y-182141857D01*
X312515476Y-182046619D01*
X312563095Y-181999000D01*
X312658333Y-181951380D01*
X312896428Y-181951380D01*
X313039285Y-181999000D01*
X313467857Y-182951380D02*
X313467857Y-181951380D01*
X313467857Y-182427571D02*
X314039285Y-182427571D01*
X314039285Y-182951380D02*
X314039285Y-181951380D01*
X314515476Y-182951380D02*
X314515476Y-181951380D01*
X315325000Y-182427571D02*
X314991666Y-182427571D01*
X314991666Y-182951380D02*
X314991666Y-181951380D01*
X315467857Y-181951380D01*
X315705952Y-181951380D02*
X316277380Y-181951380D01*
X315991666Y-182951380D02*
X315991666Y-181951380D01*
X68826380Y-163806142D02*
X68778761Y-163853761D01*
X68635904Y-163901380D01*
X68540666Y-163901380D01*
X68397809Y-163853761D01*
X68302571Y-163758523D01*
X68254952Y-163663285D01*
X68207333Y-163472809D01*
X68207333Y-163329952D01*
X68254952Y-163139476D01*
X68302571Y-163044238D01*
X68397809Y-162949000D01*
X68540666Y-162901380D01*
X68635904Y-162901380D01*
X68778761Y-162949000D01*
X68826380Y-162996619D01*
X69683523Y-163901380D02*
X69683523Y-163377571D01*
X69635904Y-163282333D01*
X69540666Y-163234714D01*
X69350190Y-163234714D01*
X69254952Y-163282333D01*
X69683523Y-163853761D02*
X69588285Y-163901380D01*
X69350190Y-163901380D01*
X69254952Y-163853761D01*
X69207333Y-163758523D01*
X69207333Y-163663285D01*
X69254952Y-163568047D01*
X69350190Y-163520428D01*
X69588285Y-163520428D01*
X69683523Y-163472809D01*
X70159714Y-163234714D02*
X70159714Y-164234714D01*
X70159714Y-163282333D02*
X70254952Y-163234714D01*
X70445428Y-163234714D01*
X70540666Y-163282333D01*
X70588285Y-163329952D01*
X70635904Y-163425190D01*
X70635904Y-163710904D01*
X70588285Y-163806142D01*
X70540666Y-163853761D01*
X70445428Y-163901380D01*
X70254952Y-163901380D01*
X70159714Y-163853761D01*
X71016857Y-163853761D02*
X71112095Y-163901380D01*
X71302571Y-163901380D01*
X71397809Y-163853761D01*
X71445428Y-163758523D01*
X71445428Y-163710904D01*
X71397809Y-163615666D01*
X71302571Y-163568047D01*
X71159714Y-163568047D01*
X71064476Y-163520428D01*
X71016857Y-163425190D01*
X71016857Y-163377571D01*
X71064476Y-163282333D01*
X71159714Y-163234714D01*
X71302571Y-163234714D01*
X71397809Y-163282333D01*
X72016857Y-163901380D02*
X71921619Y-163853761D01*
X71874000Y-163758523D01*
X71874000Y-162901380D01*
X72540666Y-163901380D02*
X72445428Y-163853761D01*
X72397809Y-163806142D01*
X72350190Y-163710904D01*
X72350190Y-163425190D01*
X72397809Y-163329952D01*
X72445428Y-163282333D01*
X72540666Y-163234714D01*
X72683523Y-163234714D01*
X72778761Y-163282333D01*
X72826380Y-163329952D01*
X72874000Y-163425190D01*
X72874000Y-163710904D01*
X72826380Y-163806142D01*
X72778761Y-163853761D01*
X72683523Y-163901380D01*
X72540666Y-163901380D01*
X73731142Y-163853761D02*
X73635904Y-163901380D01*
X73445428Y-163901380D01*
X73350190Y-163853761D01*
X73302571Y-163806142D01*
X73254952Y-163710904D01*
X73254952Y-163425190D01*
X73302571Y-163329952D01*
X73350190Y-163282333D01*
X73445428Y-163234714D01*
X73635904Y-163234714D01*
X73731142Y-163282333D01*
X74159714Y-163901380D02*
X74159714Y-162901380D01*
X74254952Y-163520428D02*
X74540666Y-163901380D01*
X74540666Y-163234714D02*
X74159714Y-163615666D01*
X75771428Y-125801380D02*
X75771428Y-124801380D01*
X75866666Y-125420428D02*
X76152380Y-125801380D01*
X76152380Y-125134714D02*
X75771428Y-125515666D01*
X76723809Y-125801380D02*
X76628571Y-125753761D01*
X76580952Y-125658523D01*
X76580952Y-124801380D01*
X84859904Y-106751380D02*
X84859904Y-105751380D01*
X85431333Y-106751380D02*
X85002761Y-106179952D01*
X85431333Y-105751380D02*
X84859904Y-106322809D01*
X86383714Y-106751380D02*
X85812285Y-106751380D01*
X86098000Y-106751380D02*
X86098000Y-105751380D01*
X86002761Y-105894238D01*
X85907523Y-105989476D01*
X85812285Y-106037095D01*
X113434904Y-106751380D02*
X113434904Y-105751380D01*
X114006333Y-106751380D02*
X113577761Y-106179952D01*
X114006333Y-105751380D02*
X113434904Y-106322809D01*
X114387285Y-105846619D02*
X114434904Y-105799000D01*
X114530142Y-105751380D01*
X114768238Y-105751380D01*
X114863476Y-105799000D01*
X114911095Y-105846619D01*
X114958714Y-105941857D01*
X114958714Y-106037095D01*
X114911095Y-106179952D01*
X114339666Y-106751380D01*
X114958714Y-106751380D01*
X142009904Y-106751380D02*
X142009904Y-105751380D01*
X142581333Y-106751380D02*
X142152761Y-106179952D01*
X142581333Y-105751380D02*
X142009904Y-106322809D01*
X142914666Y-105751380D02*
X143533714Y-105751380D01*
X143200380Y-106132333D01*
X143343238Y-106132333D01*
X143438476Y-106179952D01*
X143486095Y-106227571D01*
X143533714Y-106322809D01*
X143533714Y-106560904D01*
X143486095Y-106656142D01*
X143438476Y-106703761D01*
X143343238Y-106751380D01*
X143057523Y-106751380D01*
X142962285Y-106703761D01*
X142914666Y-106656142D01*
X170584904Y-106751380D02*
X170584904Y-105751380D01*
X171156333Y-106751380D02*
X170727761Y-106179952D01*
X171156333Y-105751380D02*
X170584904Y-106322809D01*
X172013476Y-106084714D02*
X172013476Y-106751380D01*
X171775380Y-105703761D02*
X171537285Y-106418047D01*
X172156333Y-106418047D01*
X242585904Y-106084714D02*
X242585904Y-106751380D01*
X242157333Y-106084714D02*
X242157333Y-106608523D01*
X242204952Y-106703761D01*
X242300190Y-106751380D01*
X242443047Y-106751380D01*
X242538285Y-106703761D01*
X242585904Y-106656142D01*
X243490666Y-106751380D02*
X243490666Y-106227571D01*
X243443047Y-106132333D01*
X243347809Y-106084714D01*
X243157333Y-106084714D01*
X243062095Y-106132333D01*
X243490666Y-106703761D02*
X243395428Y-106751380D01*
X243157333Y-106751380D01*
X243062095Y-106703761D01*
X243014476Y-106608523D01*
X243014476Y-106513285D01*
X243062095Y-106418047D01*
X243157333Y-106370428D01*
X243395428Y-106370428D01*
X243490666Y-106322809D01*
X280685904Y-106084714D02*
X279924000Y-106370428D01*
X280685904Y-106656142D01*
X281162095Y-106370428D02*
X281924000Y-106370428D01*
X298974000Y-106370428D02*
X299735904Y-106370428D01*
X300212095Y-106084714D02*
X300974000Y-106370428D01*
X300212095Y-106656142D01*
X318381142Y-106751380D02*
X318047809Y-106275190D01*
X317809714Y-106751380D02*
X317809714Y-105751380D01*
X318190666Y-105751380D01*
X318285904Y-105799000D01*
X318333523Y-105846619D01*
X318381142Y-105941857D01*
X318381142Y-106084714D01*
X318333523Y-106179952D01*
X318285904Y-106227571D01*
X318190666Y-106275190D01*
X317809714Y-106275190D01*
X318809714Y-106227571D02*
X319143047Y-106227571D01*
X319285904Y-106751380D02*
X318809714Y-106751380D01*
X318809714Y-105751380D01*
X319285904Y-105751380D01*
X319714476Y-106751380D02*
X319714476Y-105751380D01*
X320095428Y-105751380D01*
X320190666Y-105799000D01*
X320238285Y-105846619D01*
X320285904Y-105941857D01*
X320285904Y-106084714D01*
X320238285Y-106179952D01*
X320190666Y-106227571D01*
X320095428Y-106275190D01*
X319714476Y-106275190D01*
X335740666Y-106370428D02*
X336502571Y-106370428D01*
X337550190Y-106656142D02*
X337502571Y-106703761D01*
X337359714Y-106751380D01*
X337264476Y-106751380D01*
X337121619Y-106703761D01*
X337026380Y-106608523D01*
X336978761Y-106513285D01*
X336931142Y-106322809D01*
X336931142Y-106179952D01*
X336978761Y-105989476D01*
X337026380Y-105894238D01*
X337121619Y-105799000D01*
X337264476Y-105751380D01*
X337359714Y-105751380D01*
X337502571Y-105799000D01*
X337550190Y-105846619D01*
X337978761Y-106751380D02*
X337978761Y-105751380D01*
X337978761Y-106227571D02*
X338550190Y-106227571D01*
X338550190Y-106751380D02*
X338550190Y-105751380D01*
X338978761Y-106465666D02*
X339454952Y-106465666D01*
X338883523Y-106751380D02*
X339216857Y-105751380D01*
X339550190Y-106751380D01*
X340454952Y-106751380D02*
X340121619Y-106275190D01*
X339883523Y-106751380D02*
X339883523Y-105751380D01*
X340264476Y-105751380D01*
X340359714Y-105799000D01*
X340407333Y-105846619D01*
X340454952Y-105941857D01*
X340454952Y-106084714D01*
X340407333Y-106179952D01*
X340359714Y-106227571D01*
X340264476Y-106275190D01*
X339883523Y-106275190D01*
X323326190Y-125801380D02*
X323326190Y-125134714D01*
X323326190Y-125325190D02*
X323373809Y-125229952D01*
X323421428Y-125182333D01*
X323516666Y-125134714D01*
X323611904Y-125134714D01*
X324373809Y-125801380D02*
X324373809Y-124801380D01*
X324373809Y-125753761D02*
X324278571Y-125801380D01*
X324088095Y-125801380D01*
X323992857Y-125753761D01*
X323945238Y-125706142D01*
X323897619Y-125610904D01*
X323897619Y-125325190D01*
X323945238Y-125229952D01*
X323992857Y-125182333D01*
X324088095Y-125134714D01*
X324278571Y-125134714D01*
X324373809Y-125182333D01*
X273169142Y-201620428D02*
X273931047Y-201620428D01*
X274550095Y-202001380D02*
X274454857Y-201953761D01*
X274407238Y-201858523D01*
X274407238Y-201001380D01*
X95535714Y-125801380D02*
X94964285Y-125801380D01*
X95250000Y-125801380D02*
X95250000Y-124801380D01*
X95154761Y-124944238D01*
X95059523Y-125039476D01*
X94964285Y-125087095D01*
X114014285Y-124896619D02*
X114061904Y-124849000D01*
X114157142Y-124801380D01*
X114395238Y-124801380D01*
X114490476Y-124849000D01*
X114538095Y-124896619D01*
X114585714Y-124991857D01*
X114585714Y-125087095D01*
X114538095Y-125229952D01*
X113966666Y-125801380D01*
X114585714Y-125801380D01*
X133016666Y-124801380D02*
X133635714Y-124801380D01*
X133302380Y-125182333D01*
X133445238Y-125182333D01*
X133540476Y-125229952D01*
X133588095Y-125277571D01*
X133635714Y-125372809D01*
X133635714Y-125610904D01*
X133588095Y-125706142D01*
X133540476Y-125753761D01*
X133445238Y-125801380D01*
X133159523Y-125801380D01*
X133064285Y-125753761D01*
X133016666Y-125706142D01*
X152590476Y-125134714D02*
X152590476Y-125801380D01*
X152352380Y-124753761D02*
X152114285Y-125468047D01*
X152733333Y-125468047D01*
X171688095Y-124801380D02*
X171211904Y-124801380D01*
X171164285Y-125277571D01*
X171211904Y-125229952D01*
X171307142Y-125182333D01*
X171545238Y-125182333D01*
X171640476Y-125229952D01*
X171688095Y-125277571D01*
X171735714Y-125372809D01*
X171735714Y-125610904D01*
X171688095Y-125706142D01*
X171640476Y-125753761D01*
X171545238Y-125801380D01*
X171307142Y-125801380D01*
X171211904Y-125753761D01*
X171164285Y-125706142D01*
X190690476Y-124801380D02*
X190500000Y-124801380D01*
X190404761Y-124849000D01*
X190357142Y-124896619D01*
X190261904Y-125039476D01*
X190214285Y-125229952D01*
X190214285Y-125610904D01*
X190261904Y-125706142D01*
X190309523Y-125753761D01*
X190404761Y-125801380D01*
X190595238Y-125801380D01*
X190690476Y-125753761D01*
X190738095Y-125706142D01*
X190785714Y-125610904D01*
X190785714Y-125372809D01*
X190738095Y-125277571D01*
X190690476Y-125229952D01*
X190595238Y-125182333D01*
X190404761Y-125182333D01*
X190309523Y-125229952D01*
X190261904Y-125277571D01*
X190214285Y-125372809D01*
X209216666Y-124801380D02*
X209883333Y-124801380D01*
X209454761Y-125801380D01*
X228504761Y-125229952D02*
X228409523Y-125182333D01*
X228361904Y-125134714D01*
X228314285Y-125039476D01*
X228314285Y-124991857D01*
X228361904Y-124896619D01*
X228409523Y-124849000D01*
X228504761Y-124801380D01*
X228695238Y-124801380D01*
X228790476Y-124849000D01*
X228838095Y-124896619D01*
X228885714Y-124991857D01*
X228885714Y-125039476D01*
X228838095Y-125134714D01*
X228790476Y-125182333D01*
X228695238Y-125229952D01*
X228504761Y-125229952D01*
X228409523Y-125277571D01*
X228361904Y-125325190D01*
X228314285Y-125420428D01*
X228314285Y-125610904D01*
X228361904Y-125706142D01*
X228409523Y-125753761D01*
X228504761Y-125801380D01*
X228695238Y-125801380D01*
X228790476Y-125753761D01*
X228838095Y-125706142D01*
X228885714Y-125610904D01*
X228885714Y-125420428D01*
X228838095Y-125325190D01*
X228790476Y-125277571D01*
X228695238Y-125229952D01*
X266652380Y-124801380D02*
X266747619Y-124801380D01*
X266842857Y-124849000D01*
X266890476Y-124896619D01*
X266938095Y-124991857D01*
X266985714Y-125182333D01*
X266985714Y-125420428D01*
X266938095Y-125610904D01*
X266890476Y-125706142D01*
X266842857Y-125753761D01*
X266747619Y-125801380D01*
X266652380Y-125801380D01*
X266557142Y-125753761D01*
X266509523Y-125706142D01*
X266461904Y-125610904D01*
X266414285Y-125420428D01*
X266414285Y-125182333D01*
X266461904Y-124991857D01*
X266509523Y-124896619D01*
X266557142Y-124849000D01*
X266652380Y-124801380D01*
X285369047Y-125420428D02*
X286130952Y-125420428D01*
X304419047Y-125277571D02*
X305180952Y-125277571D01*
X305180952Y-125563285D02*
X304419047Y-125563285D01*
X342280952Y-125801380D02*
X342280952Y-124801380D01*
X342280952Y-125182333D02*
X342376190Y-125134714D01*
X342566666Y-125134714D01*
X342661904Y-125182333D01*
X342709523Y-125229952D01*
X342757142Y-125325190D01*
X342757142Y-125610904D01*
X342709523Y-125706142D01*
X342661904Y-125753761D01*
X342566666Y-125801380D01*
X342376190Y-125801380D01*
X342280952Y-125753761D01*
X343138095Y-125753761D02*
X343233333Y-125801380D01*
X343423809Y-125801380D01*
X343519047Y-125753761D01*
X343566666Y-125658523D01*
X343566666Y-125610904D01*
X343519047Y-125515666D01*
X343423809Y-125468047D01*
X343280952Y-125468047D01*
X343185714Y-125420428D01*
X343138095Y-125325190D01*
X343138095Y-125277571D01*
X343185714Y-125182333D01*
X343280952Y-125134714D01*
X343423809Y-125134714D01*
X343519047Y-125182333D01*
X134183619Y-202001380D02*
X133850285Y-201525190D01*
X133612190Y-202001380D02*
X133612190Y-201001380D01*
X133993142Y-201001380D01*
X134088380Y-201049000D01*
X134136000Y-201096619D01*
X134183619Y-201191857D01*
X134183619Y-201334714D01*
X134136000Y-201429952D01*
X134088380Y-201477571D01*
X133993142Y-201525190D01*
X133612190Y-201525190D01*
X134612190Y-201477571D02*
X134945523Y-201477571D01*
X135088380Y-202001380D02*
X134612190Y-202001380D01*
X134612190Y-201001380D01*
X135088380Y-201001380D01*
X135469333Y-201953761D02*
X135612190Y-202001380D01*
X135850285Y-202001380D01*
X135945523Y-201953761D01*
X135993142Y-201906142D01*
X136040761Y-201810904D01*
X136040761Y-201715666D01*
X135993142Y-201620428D01*
X135945523Y-201572809D01*
X135850285Y-201525190D01*
X135659809Y-201477571D01*
X135564571Y-201429952D01*
X135516952Y-201382333D01*
X135469333Y-201287095D01*
X135469333Y-201191857D01*
X135516952Y-201096619D01*
X135564571Y-201049000D01*
X135659809Y-201001380D01*
X135897904Y-201001380D01*
X136040761Y-201049000D01*
X136469333Y-201477571D02*
X136802666Y-201477571D01*
X136945523Y-202001380D02*
X136469333Y-202001380D01*
X136469333Y-201001380D01*
X136945523Y-201001380D01*
X137231238Y-201001380D02*
X137802666Y-201001380D01*
X137516952Y-202001380D02*
X137516952Y-201001380D01*
X105155952Y-144946619D02*
X105060714Y-144899000D01*
X104965476Y-144803761D01*
X104822619Y-144660904D01*
X104727380Y-144613285D01*
X104632142Y-144613285D01*
X104679761Y-144851380D02*
X104584523Y-144803761D01*
X104489285Y-144708523D01*
X104441666Y-144518047D01*
X104441666Y-144184714D01*
X104489285Y-143994238D01*
X104584523Y-143899000D01*
X104679761Y-143851380D01*
X104870238Y-143851380D01*
X104965476Y-143899000D01*
X105060714Y-143994238D01*
X105108333Y-144184714D01*
X105108333Y-144518047D01*
X105060714Y-144708523D01*
X104965476Y-144803761D01*
X104870238Y-144851380D01*
X104679761Y-144851380D01*
X123396428Y-143851380D02*
X123634523Y-144851380D01*
X123825000Y-144137095D01*
X124015476Y-144851380D01*
X124253571Y-143851380D01*
X142660714Y-144327571D02*
X142994047Y-144327571D01*
X143136904Y-144851380D02*
X142660714Y-144851380D01*
X142660714Y-143851380D01*
X143136904Y-143851380D01*
X162234523Y-144851380D02*
X161901190Y-144375190D01*
X161663095Y-144851380D02*
X161663095Y-143851380D01*
X162044047Y-143851380D01*
X162139285Y-143899000D01*
X162186904Y-143946619D01*
X162234523Y-144041857D01*
X162234523Y-144184714D01*
X162186904Y-144279952D01*
X162139285Y-144327571D01*
X162044047Y-144375190D01*
X161663095Y-144375190D01*
X180689285Y-143851380D02*
X181260714Y-143851380D01*
X180975000Y-144851380D02*
X180975000Y-143851380D01*
X200025000Y-144375190D02*
X200025000Y-144851380D01*
X199691666Y-143851380D02*
X200025000Y-144375190D01*
X200358333Y-143851380D01*
X218789285Y-143851380D02*
X218789285Y-144660904D01*
X218836904Y-144756142D01*
X218884523Y-144803761D01*
X218979761Y-144851380D01*
X219170238Y-144851380D01*
X219265476Y-144803761D01*
X219313095Y-144756142D01*
X219360714Y-144660904D01*
X219360714Y-143851380D01*
X238125000Y-144851380D02*
X238125000Y-143851380D01*
X257079761Y-143851380D02*
X257270238Y-143851380D01*
X257365476Y-143899000D01*
X257460714Y-143994238D01*
X257508333Y-144184714D01*
X257508333Y-144518047D01*
X257460714Y-144708523D01*
X257365476Y-144803761D01*
X257270238Y-144851380D01*
X257079761Y-144851380D01*
X256984523Y-144803761D01*
X256889285Y-144708523D01*
X256841666Y-144518047D01*
X256841666Y-144184714D01*
X256889285Y-143994238D01*
X256984523Y-143899000D01*
X257079761Y-143851380D01*
X275963095Y-144851380D02*
X275963095Y-143851380D01*
X276344047Y-143851380D01*
X276439285Y-143899000D01*
X276486904Y-143946619D01*
X276534523Y-144041857D01*
X276534523Y-144184714D01*
X276486904Y-144279952D01*
X276439285Y-144327571D01*
X276344047Y-144375190D01*
X275963095Y-144375190D01*
X295465476Y-145232333D02*
X295417857Y-145232333D01*
X295322619Y-145184714D01*
X295275000Y-145089476D01*
X295275000Y-144613285D01*
X295227380Y-144518047D01*
X295132142Y-144470428D01*
X295227380Y-144422809D01*
X295275000Y-144327571D01*
X295275000Y-143851380D01*
X295322619Y-143756142D01*
X295417857Y-143708523D01*
X295465476Y-143708523D01*
X314134523Y-145232333D02*
X314182142Y-145232333D01*
X314277380Y-145184714D01*
X314325000Y-145089476D01*
X314325000Y-144613285D01*
X314372619Y-144518047D01*
X314467857Y-144470428D01*
X314372619Y-144422809D01*
X314325000Y-144327571D01*
X314325000Y-143851380D01*
X314277380Y-143756142D01*
X314182142Y-143708523D01*
X314134523Y-143708523D01*
X341804761Y-144803761D02*
X341900000Y-144851380D01*
X342090476Y-144851380D01*
X342185714Y-144803761D01*
X342233333Y-144708523D01*
X342233333Y-144660904D01*
X342185714Y-144565666D01*
X342090476Y-144518047D01*
X341947619Y-144518047D01*
X341852380Y-144470428D01*
X341804761Y-144375190D01*
X341804761Y-144327571D01*
X341852380Y-144232333D01*
X341947619Y-144184714D01*
X342090476Y-144184714D01*
X342185714Y-144232333D01*
X343090476Y-144803761D02*
X342995238Y-144851380D01*
X342804761Y-144851380D01*
X342709523Y-144803761D01*
X342661904Y-144756142D01*
X342614285Y-144660904D01*
X342614285Y-144375190D01*
X342661904Y-144279952D01*
X342709523Y-144232333D01*
X342804761Y-144184714D01*
X342995238Y-144184714D01*
X343090476Y-144232333D01*
X343947619Y-144851380D02*
X343947619Y-144327571D01*
X343900000Y-144232333D01*
X343804761Y-144184714D01*
X343614285Y-144184714D01*
X343519047Y-144232333D01*
X343947619Y-144803761D02*
X343852380Y-144851380D01*
X343614285Y-144851380D01*
X343519047Y-144803761D01*
X343471428Y-144708523D01*
X343471428Y-144613285D01*
X343519047Y-144518047D01*
X343614285Y-144470428D01*
X343852380Y-144470428D01*
X343947619Y-144422809D01*
X109235904Y-163615666D02*
X109712095Y-163615666D01*
X109140666Y-163901380D02*
X109474000Y-162901380D01*
X109807333Y-163901380D01*
X128238285Y-163853761D02*
X128381142Y-163901380D01*
X128619238Y-163901380D01*
X128714476Y-163853761D01*
X128762095Y-163806142D01*
X128809714Y-163710904D01*
X128809714Y-163615666D01*
X128762095Y-163520428D01*
X128714476Y-163472809D01*
X128619238Y-163425190D01*
X128428761Y-163377571D01*
X128333523Y-163329952D01*
X128285904Y-163282333D01*
X128238285Y-163187095D01*
X128238285Y-163091857D01*
X128285904Y-162996619D01*
X128333523Y-162949000D01*
X128428761Y-162901380D01*
X128666857Y-162901380D01*
X128809714Y-162949000D01*
X147375595Y-163901380D02*
X147375595Y-162901380D01*
X147613690Y-162901380D01*
X147756547Y-162949000D01*
X147851785Y-163044238D01*
X147899404Y-163139476D01*
X147947023Y-163329952D01*
X147947023Y-163472809D01*
X147899404Y-163663285D01*
X147851785Y-163758523D01*
X147756547Y-163853761D01*
X147613690Y-163901380D01*
X147375595Y-163901380D01*
X166830357Y-163377571D02*
X166497023Y-163377571D01*
X166497023Y-163901380D02*
X166497023Y-162901380D01*
X166973214Y-162901380D01*
X185999404Y-162949000D02*
X185904166Y-162901380D01*
X185761309Y-162901380D01*
X185618452Y-162949000D01*
X185523214Y-163044238D01*
X185475595Y-163139476D01*
X185427976Y-163329952D01*
X185427976Y-163472809D01*
X185475595Y-163663285D01*
X185523214Y-163758523D01*
X185618452Y-163853761D01*
X185761309Y-163901380D01*
X185856547Y-163901380D01*
X185999404Y-163853761D01*
X186047023Y-163806142D01*
X186047023Y-163472809D01*
X185856547Y-163472809D01*
X204501785Y-163901380D02*
X204501785Y-162901380D01*
X204501785Y-163377571D02*
X205073214Y-163377571D01*
X205073214Y-163901380D02*
X205073214Y-162901380D01*
X223980357Y-162901380D02*
X223980357Y-163615666D01*
X223932738Y-163758523D01*
X223837500Y-163853761D01*
X223694642Y-163901380D01*
X223599404Y-163901380D01*
X242625595Y-163901380D02*
X242625595Y-162901380D01*
X243197023Y-163901380D02*
X242768452Y-163329952D01*
X243197023Y-162901380D02*
X242625595Y-163472809D01*
X262247023Y-163901380D02*
X261770833Y-163901380D01*
X261770833Y-162901380D01*
X281035119Y-163853761D02*
X281035119Y-163901380D01*
X280987500Y-163996619D01*
X280939880Y-164044238D01*
X280987500Y-163282333D02*
X281035119Y-163329952D01*
X280987500Y-163377571D01*
X280939880Y-163329952D01*
X280987500Y-163282333D01*
X280987500Y-163377571D01*
X300085119Y-162901380D02*
X299989880Y-163091857D01*
X328604571Y-163853761D02*
X328509333Y-163901380D01*
X328318857Y-163901380D01*
X328223619Y-163853761D01*
X328176000Y-163758523D01*
X328176000Y-163377571D01*
X328223619Y-163282333D01*
X328318857Y-163234714D01*
X328509333Y-163234714D01*
X328604571Y-163282333D01*
X328652190Y-163377571D01*
X328652190Y-163472809D01*
X328176000Y-163568047D01*
X329223619Y-163901380D02*
X329128380Y-163853761D01*
X329080761Y-163758523D01*
X329080761Y-162901380D01*
X204057333Y-201953761D02*
X204152571Y-202001380D01*
X204343047Y-202001380D01*
X204438285Y-201953761D01*
X204485904Y-201858523D01*
X204485904Y-201810904D01*
X204438285Y-201715666D01*
X204343047Y-201668047D01*
X204200190Y-201668047D01*
X204104952Y-201620428D01*
X204057333Y-201525190D01*
X204057333Y-201477571D01*
X204104952Y-201382333D01*
X204200190Y-201334714D01*
X204343047Y-201334714D01*
X204438285Y-201382333D01*
X204914476Y-202001380D02*
X204914476Y-201001380D01*
X204914476Y-201382333D02*
X205009714Y-201334714D01*
X205200190Y-201334714D01*
X205295428Y-201382333D01*
X205343047Y-201429952D01*
X205390666Y-201525190D01*
X205390666Y-201810904D01*
X205343047Y-201906142D01*
X205295428Y-201953761D01*
X205200190Y-202001380D01*
X205009714Y-202001380D01*
X204914476Y-201953761D01*
X118665666Y-181951380D02*
X119332333Y-181951380D01*
X118665666Y-182951380D01*
X119332333Y-182951380D01*
X137715666Y-181951380D02*
X138382333Y-182951380D01*
X138382333Y-181951380D02*
X137715666Y-182951380D01*
X157408523Y-182856142D02*
X157360904Y-182903761D01*
X157218047Y-182951380D01*
X157122809Y-182951380D01*
X156979952Y-182903761D01*
X156884714Y-182808523D01*
X156837095Y-182713285D01*
X156789476Y-182522809D01*
X156789476Y-182379952D01*
X156837095Y-182189476D01*
X156884714Y-182094238D01*
X156979952Y-181999000D01*
X157122809Y-181951380D01*
X157218047Y-181951380D01*
X157360904Y-181999000D01*
X157408523Y-182046619D01*
X175815666Y-181951380D02*
X176149000Y-182951380D01*
X176482333Y-181951380D01*
X195270428Y-182427571D02*
X195413285Y-182475190D01*
X195460904Y-182522809D01*
X195508523Y-182618047D01*
X195508523Y-182760904D01*
X195460904Y-182856142D01*
X195413285Y-182903761D01*
X195318047Y-182951380D01*
X194937095Y-182951380D01*
X194937095Y-181951380D01*
X195270428Y-181951380D01*
X195365666Y-181999000D01*
X195413285Y-182046619D01*
X195460904Y-182141857D01*
X195460904Y-182237095D01*
X195413285Y-182332333D01*
X195365666Y-182379952D01*
X195270428Y-182427571D01*
X194937095Y-182427571D01*
X213963285Y-182951380D02*
X213963285Y-181951380D01*
X214534714Y-182951380D01*
X214534714Y-181951380D01*
X252396619Y-182903761D02*
X252396619Y-182951380D01*
X252349000Y-183046619D01*
X252301380Y-183094238D01*
X290877571Y-181903761D02*
X290020428Y-183189476D01*
X78756142Y-144851380D02*
X78756142Y-143851380D01*
X79137095Y-143851380D01*
X79232333Y-143899000D01*
X79279952Y-143946619D01*
X79327571Y-144041857D01*
X79327571Y-144184714D01*
X79279952Y-144279952D01*
X79232333Y-144327571D01*
X79137095Y-144375190D01*
X78756142Y-144375190D01*
X79708523Y-144565666D02*
X80184714Y-144565666D01*
X79613285Y-144851380D02*
X79946619Y-143851380D01*
X80279952Y-144851380D01*
X80613285Y-143851380D02*
X80613285Y-144660904D01*
X80660904Y-144756142D01*
X80708523Y-144803761D01*
X80803761Y-144851380D01*
X80994238Y-144851380D01*
X81089476Y-144803761D01*
X81137095Y-144756142D01*
X81184714Y-144660904D01*
X81184714Y-143851380D01*
X81613285Y-144803761D02*
X81756142Y-144851380D01*
X81994238Y-144851380D01*
X82089476Y-144803761D01*
X82137095Y-144756142D01*
X82184714Y-144660904D01*
X82184714Y-144565666D01*
X82137095Y-144470428D01*
X82089476Y-144422809D01*
X81994238Y-144375190D01*
X81803761Y-144327571D01*
X81708523Y-144279952D01*
X81660904Y-144232333D01*
X81613285Y-144137095D01*
X81613285Y-144041857D01*
X81660904Y-143946619D01*
X81708523Y-143899000D01*
X81803761Y-143851380D01*
X82041857Y-143851380D01*
X82184714Y-143899000D01*
X82613285Y-144327571D02*
X82946619Y-144327571D01*
X83089476Y-144851380D02*
X82613285Y-144851380D01*
X82613285Y-143851380D01*
X83089476Y-143851380D01*
X337462904Y-182951380D02*
X337129571Y-182475190D01*
X336891476Y-182951380D02*
X336891476Y-181951380D01*
X337272428Y-181951380D01*
X337367666Y-181999000D01*
X337415285Y-182046619D01*
X337462904Y-182141857D01*
X337462904Y-182284714D01*
X337415285Y-182379952D01*
X337367666Y-182427571D01*
X337272428Y-182475190D01*
X336891476Y-182475190D01*
X337891476Y-181951380D02*
X337891476Y-182760904D01*
X337939095Y-182856142D01*
X337986714Y-182903761D01*
X338081952Y-182951380D01*
X338272428Y-182951380D01*
X338367666Y-182903761D01*
X338415285Y-182856142D01*
X338462904Y-182760904D01*
X338462904Y-181951380D01*
X338939095Y-182951380D02*
X338939095Y-181951380D01*
X339510523Y-182951380D01*
X339510523Y-181951380D01*
X342238095Y-75714761D02*
X342380952Y-75762380D01*
X342619047Y-75762380D01*
X342714285Y-75714761D01*
X342761904Y-75667142D01*
X342809523Y-75571904D01*
X342809523Y-75476666D01*
X342761904Y-75381428D01*
X342714285Y-75333809D01*
X342619047Y-75286190D01*
X342428571Y-75238571D01*
X342333333Y-75190952D01*
X342285714Y-75143333D01*
X342238095Y-75048095D01*
X342238095Y-74952857D01*
X342285714Y-74857619D01*
X342333333Y-74810000D01*
X342428571Y-74762380D01*
X342666666Y-74762380D01*
X342809523Y-74810000D01*
X343238095Y-75095714D02*
X343238095Y-76095714D01*
X343238095Y-75143333D02*
X343333333Y-75095714D01*
X343523809Y-75095714D01*
X343619047Y-75143333D01*
X343666666Y-75190952D01*
X343714285Y-75286190D01*
X343714285Y-75571904D01*
X343666666Y-75667142D01*
X343619047Y-75714761D01*
X343523809Y-75762380D01*
X343333333Y-75762380D01*
X343238095Y-75714761D01*
X344523809Y-75714761D02*
X344428571Y-75762380D01*
X344238095Y-75762380D01*
X344142857Y-75714761D01*
X344095238Y-75619523D01*
X344095238Y-75238571D01*
X344142857Y-75143333D01*
X344238095Y-75095714D01*
X344428571Y-75095714D01*
X344523809Y-75143333D01*
X344571428Y-75238571D01*
X344571428Y-75333809D01*
X344095238Y-75429047D01*
X345428571Y-75762380D02*
X345428571Y-75238571D01*
X345380952Y-75143333D01*
X345285714Y-75095714D01*
X345095238Y-75095714D01*
X345000000Y-75143333D01*
X345428571Y-75714761D02*
X345333333Y-75762380D01*
X345095238Y-75762380D01*
X345000000Y-75714761D01*
X344952380Y-75619523D01*
X344952380Y-75524285D01*
X345000000Y-75429047D01*
X345095238Y-75381428D01*
X345333333Y-75381428D01*
X345428571Y-75333809D01*
X345904761Y-75762380D02*
X345904761Y-74762380D01*
X346000000Y-75381428D02*
X346285714Y-75762380D01*
X346285714Y-75095714D02*
X345904761Y-75476666D01*
X347095238Y-75714761D02*
X347000000Y-75762380D01*
X346809523Y-75762380D01*
X346714285Y-75714761D01*
X346666666Y-75619523D01*
X346666666Y-75238571D01*
X346714285Y-75143333D01*
X346809523Y-75095714D01*
X347000000Y-75095714D01*
X347095238Y-75143333D01*
X347142857Y-75238571D01*
X347142857Y-75333809D01*
X346666666Y-75429047D01*
X347571428Y-75762380D02*
X347571428Y-75095714D01*
X347571428Y-75286190D02*
X347619047Y-75190952D01*
X347666666Y-75143333D01*
X347761904Y-75095714D01*
X347857142Y-75095714D01*
M02*
