M48
; DRILL file {KiCad (5.1.2)-1} date 10/14/2019 05:56:33
; FORMAT={-:-/ absolute / inch / decimal}
; #@! TF.CreationDate,2019-10-14T05:56:33-04:00
; #@! TF.GenerationSoftware,Kicad,Pcbnew,(5.1.2)-1
; #@! TF.FileFunction,NonPlated,1,2,NPTH
FMAT,2
INCH
T1C0.0669
T2C0.1201
T3C0.1575
%
G90
G05
T1
X5.8Y-4.625
X6.2Y-4.625
X10.8625Y-6.125
X11.2625Y-6.125
X8.05Y-4.625
X8.45Y-4.625
X9.735Y-6.875
X10.135Y-6.875
X11.8Y-4.625
X12.2Y-4.625
X9.925Y-5.375
X10.325Y-5.375
X3.17Y-3.875
X3.57Y-3.875
X3.925Y-5.375
X4.325Y-5.375
X11.425Y-5.375
X11.825Y-5.375
X11.6125Y-6.125
X12.0125Y-6.125
X5.235Y-6.875
X5.635Y-6.875
X9.175Y-5.375
X9.575Y-5.375
X10.11Y-3.875
X10.51Y-3.875
X5.985Y-6.875
X6.385Y-6.875
X2.8Y-4.625
X3.2Y-4.625
X4.86Y-6.125
X5.26Y-6.125
X11.61Y-3.875
X12.01Y-3.875
X6.545Y-3.875
X6.945Y-3.875
X7.86Y-7.625
X8.26Y-7.625
X7.3Y-4.625
X7.7Y-4.625
X13.11Y-3.875
X13.51Y-3.875
X11.235Y-6.875
X11.635Y-6.875
X4.3Y-4.625
X4.7Y-4.625
X7.8625Y-6.125
X8.2625Y-6.125
X6.55Y-4.625
X6.95Y-4.625
X4.485Y-6.875
X4.885Y-6.875
X9.55Y-4.625
X9.95Y-4.625
X10.3Y-4.625
X10.7Y-4.625
X13.3Y-4.625
X13.7Y-4.625
X5.425Y-5.375
X5.825Y-5.375
X4.675Y-5.375
X5.075Y-5.375
X5.6125Y-6.125
X6.0125Y-6.125
X10.485Y-6.875
X10.885Y-6.875
X6.175Y-5.375
X6.575Y-5.375
X3.545Y-6.875
X3.945Y-6.875
X12.74Y-6.125
X13.14Y-6.125
X3.36Y-6.125
X3.76Y-6.125
X13.3Y-5.375
X13.7Y-5.375
X10.58Y-7.625
X10.98Y-7.625
X12.175Y-5.375
X12.575Y-5.375
X4.295Y-3.875
X4.695Y-3.875
X4.11Y-6.125
X4.51Y-6.125
X12.175Y-6.875
X12.575Y-6.875
X9.3625Y-6.125
X9.7625Y-6.125
X10.86Y-3.875
X11.26Y-3.875
X6.735Y-6.875
X7.135Y-6.875
X12.55Y-4.625
X12.95Y-4.625
X2.985Y-5.375
X3.385Y-5.375
X5.05Y-4.625
X5.45Y-4.625
X10.1125Y-6.125
X10.5125Y-6.125
X8.8Y-4.625
X9.2Y-4.625
X7.675Y-5.375
X8.075Y-5.375
X11.05Y-4.625
X11.45Y-4.625
X6.925Y-5.375
X7.325Y-5.375
X5.14Y-7.625
X5.54Y-7.625
X7.1125Y-6.125
X7.5125Y-6.125
X8.6125Y-6.125
X9.0125Y-6.125
X8.985Y-6.875
X9.385Y-6.875
X8.425Y-5.375
X8.825Y-5.375
X8.235Y-6.875
X8.635Y-6.875
X2.61Y-6.125
X3.01Y-6.125
X10.675Y-5.375
X11.075Y-5.375
X5.42Y-3.875
X5.82Y-3.875
X6.3625Y-6.125
X6.7625Y-6.125
X9.36Y-3.875
X9.76Y-3.875
X12.36Y-3.875
X12.76Y-3.875
X7.485Y-6.875
X7.885Y-6.875
X3.55Y-4.625
X3.95Y-4.625
X13.115Y-6.875
X13.515Y-6.875
T2
X6.0915Y-7.3494
X10.0285Y-7.3494
X12.4715Y-5.8494
X13.4085Y-5.8494
X13.0315Y-5.0994
X13.9685Y-5.0994
T3
X11.0625Y-6.125
X8.25Y-4.625
X9.935Y-6.875
X12.0Y-4.625
X10.125Y-5.375
X3.37Y-3.875
X4.125Y-5.375
X11.625Y-5.375
X11.8125Y-6.125
X5.435Y-6.875
X9.375Y-5.375
X10.31Y-3.875
X6.185Y-6.875
X3.0Y-4.625
X5.06Y-6.125
X11.81Y-3.875
X6.745Y-3.875
X6.0915Y-7.9494
X8.06Y-7.625
X10.0285Y-7.9494
X7.5Y-4.625
X13.31Y-3.875
X11.435Y-6.875
X4.5Y-4.625
X8.0625Y-6.125
X6.75Y-4.625
X4.685Y-6.875
X9.75Y-4.625
X10.5Y-4.625
X13.5Y-4.625
X5.625Y-5.375
X4.875Y-5.375
X5.8125Y-6.125
X10.685Y-6.875
X6.375Y-5.375
X3.745Y-6.875
X12.4715Y-6.4494
X12.94Y-6.125
X13.4085Y-6.4494
X3.56Y-6.125
X13.0315Y-5.6994
X13.5Y-5.375
X13.9685Y-5.6994
X10.78Y-7.625
X12.375Y-5.375
X4.495Y-3.875
X4.31Y-6.125
X12.375Y-6.875
X9.5625Y-6.125
X11.06Y-3.875
X6.935Y-6.875
X12.75Y-4.625
X3.185Y-5.375
X5.25Y-4.625
X10.3125Y-6.125
X9.0Y-4.625
X7.875Y-5.375
X11.25Y-4.625
X7.125Y-5.375
X5.34Y-7.625
X7.3125Y-6.125
X8.8125Y-6.125
X9.185Y-6.875
X8.625Y-5.375
X8.435Y-6.875
X2.81Y-6.125
X10.875Y-5.375
X5.62Y-3.875
X6.5625Y-6.125
X9.56Y-3.875
X12.56Y-3.875
X7.685Y-6.875
X3.75Y-4.625
X13.315Y-6.875
X6.0Y-4.625
T0
M30
