M48
; DRILL file {KiCad (5.1.2)-1} date 10/14/2019 05:56:33
; FORMAT={-:-/ absolute / inch / decimal}
; #@! TF.CreationDate,2019-10-14T05:56:33-04:00
; #@! TF.GenerationSoftware,Kicad,Pcbnew,(5.1.2)-1
; #@! TF.FileFunction,Plated,1,2,PTH
FMAT,2
INCH
T1C0.0157
T2C0.0197
T3C0.0394
T4C0.0591
T5C0.1260
%
G90
G05
T1
X3.3858Y-5.2756
X3.7795Y-3.3465
X9.7219Y-4.525
X9.8819Y-3.3071
X10.5112Y-5.275
X10.5906Y-3.3465
X11.2992Y-6.0236
X11.378Y-3.3858
T2
X2.6378Y-5.6693
X2.6772Y-5.6299
X2.7165Y-5.5906
X2.7559Y-3.1102
X2.7953Y-3.0709
X2.8346Y-3.0315
X2.874Y-5.6693
X3.1496Y-7.2047
X3.3071Y-4.252
X3.5039Y-4.2126
X3.5827Y-5.6299
X3.8189Y-5.6693
X3.8976Y-2.5984
X3.8976Y-4.3307
X3.937Y-2.6378
X3.937Y-3.4252
X3.9764Y-2.6772
X3.9764Y-3.4646
X4.0157Y-2.7165
X4.0157Y-4.252
X4.0551Y-2.7559
X4.4094Y-7.2441
X4.6457Y-4.1339
X5.1181Y-4.2126
X5.1575Y-3.0315
X5.2014Y-3.775
X5.2756Y-2.9528
X5.3937Y-2.7953
X5.4331Y-2.7165
X5.5118Y-2.6772
X5.5537Y-4.525
X5.6299Y-2.6378
X5.748Y-2.5984
X5.7874Y-4.1339
X5.8268Y-2.5591
X5.9055Y-5.2756
X5.9449Y-4.1339
X5.9843Y-2.9134
X6.063Y-2.874
X6.1811Y-2.8346
X6.4567Y-2.7559
X6.5354Y-4.1339
X6.8096Y-6.025
X6.8504Y-4.1339
X6.8537Y-6.775
X6.9767Y-3.5433
X7.2835Y-4.1339
X8.8189Y-4.0157
X9.2126Y-3.0315
X9.5276Y-4.0551
X9.5276Y-7.7559
X9.685Y-4.0157
X9.7244Y-2.9921
X9.7638Y-3.5827
X9.8031Y-7.2047
X10.1969Y-4.0945
X10.4331Y-4.0551
X10.8661Y-3.1102
X10.9055Y-4.1339
X11.1811Y-4.0945
X11.5748Y-4.2126
X11.9291Y-4.1339
X12.3228Y-4.2126
X12.5591Y-5.9055
X12.6378Y-7.4803
X12.6772Y-4.1732
X12.9134Y-4.252
X13.4252Y-4.2126
X13.5433Y-3.4646
X13.5827Y-3.4252
X13.5827Y-4.252
X13.7795Y-7.3622
X13.8622Y-2.7165
X13.8899Y-2.6497
X13.8899Y-2.7833
X13.9567Y-2.622
X13.9567Y-2.811
X14.0235Y-2.6497
X14.0235Y-2.7833
X14.0512Y-2.7165
X13.8622Y-7.8543
X13.8899Y-7.7875
X13.8899Y-7.9211
X13.9567Y-7.7598
X13.9567Y-7.9488
X14.0235Y-7.7875
X14.0235Y-7.9211
X14.0512Y-7.8543
X2.6024Y-7.8543
X2.63Y-7.7875
X2.63Y-7.9211
X2.6969Y-7.7598
X2.6969Y-7.9488
X2.7637Y-7.7875
X2.7637Y-7.9211
X2.7913Y-7.8543
X2.6024Y-2.7165
X2.63Y-2.6497
X2.63Y-2.7833
X2.6969Y-2.622
X2.6969Y-2.811
X2.7637Y-2.6497
X2.7637Y-2.7833
X2.7913Y-2.7165
T3
X6.3976Y-2.6575
X5.085Y-3.189
X5.1395Y-3.0772
X5.1941Y-3.189
X5.2486Y-3.0772
X5.3031Y-3.189
X5.3576Y-3.0772
X5.4122Y-3.189
X5.4667Y-3.0772
X5.5212Y-3.189
X5.5757Y-3.0772
X5.6303Y-3.189
X5.6848Y-3.0772
X5.7393Y-3.189
X5.7939Y-3.0772
X5.8484Y-3.189
X5.9029Y-3.0772
X5.9574Y-3.189
X6.012Y-3.0772
X6.0665Y-3.189
X6.121Y-3.0772
X6.1756Y-3.189
X6.2301Y-3.0772
X6.2846Y-3.189
X6.3391Y-3.0772
X6.3937Y-3.189
X13.5827Y-2.7559
X13.5827Y-2.8559
T4
X6.975Y-5.275
X7.225Y-5.175
X5.19Y-7.525
X5.44Y-7.425
X7.1625Y-6.025
X7.4125Y-5.925
X8.6625Y-6.025
X8.9125Y-5.925
X9.035Y-6.775
X9.285Y-6.675
X8.475Y-5.275
X8.725Y-5.175
X8.285Y-6.775
X8.535Y-6.675
X2.66Y-6.025
X2.91Y-5.925
X10.725Y-5.275
X10.975Y-5.175
X5.47Y-3.775
X5.72Y-3.675
X6.4125Y-6.025
X6.6625Y-5.925
X9.41Y-3.775
X9.66Y-3.675
X12.41Y-3.775
X12.66Y-3.675
X7.535Y-6.775
X7.785Y-6.675
X3.6Y-4.525
X3.85Y-4.425
X13.165Y-6.775
X13.415Y-6.675
X5.85Y-4.525
X6.1Y-4.425
X10.9125Y-6.025
X11.1625Y-5.925
X8.1Y-4.525
X8.35Y-4.425
X9.785Y-6.775
X10.035Y-6.675
X11.85Y-4.525
X12.1Y-4.425
X9.975Y-5.275
X10.225Y-5.175
X3.22Y-3.775
X3.47Y-3.675
X3.975Y-5.275
X4.225Y-5.175
X11.475Y-5.275
X11.725Y-5.175
X11.6625Y-6.025
X11.9125Y-5.925
X5.285Y-6.775
X5.535Y-6.675
X9.225Y-5.275
X9.475Y-5.175
X10.16Y-3.775
X10.41Y-3.675
X6.035Y-6.775
X6.285Y-6.675
X2.85Y-4.525
X3.1Y-4.425
X4.91Y-6.025
X5.16Y-5.925
X11.66Y-3.775
X11.91Y-3.675
X6.595Y-3.775
X6.845Y-3.675
X7.91Y-7.525
X8.16Y-7.425
X7.35Y-4.525
X7.6Y-4.425
X13.16Y-3.775
X13.41Y-3.675
X11.285Y-6.775
X11.535Y-6.675
X4.35Y-4.525
X4.6Y-4.425
X7.9125Y-6.025
X8.1625Y-5.925
X6.6Y-4.525
X6.85Y-4.425
X4.535Y-6.775
X4.785Y-6.675
X9.6Y-4.525
X9.85Y-4.425
X10.35Y-4.525
X10.6Y-4.425
X13.35Y-4.525
X13.6Y-4.425
X5.475Y-5.275
X5.725Y-5.175
X4.725Y-5.275
X4.975Y-5.175
X5.6625Y-6.025
X5.9125Y-5.925
X10.535Y-6.775
X10.785Y-6.675
X6.225Y-5.275
X6.475Y-5.175
X3.595Y-6.775
X3.845Y-6.675
X12.79Y-6.025
X13.04Y-5.925
X3.41Y-6.025
X3.66Y-5.925
X13.35Y-5.275
X13.6Y-5.175
X10.63Y-7.525
X10.88Y-7.425
X12.225Y-5.275
X12.475Y-5.175
X4.345Y-3.775
X4.595Y-3.675
X4.16Y-6.025
X4.41Y-5.925
X12.225Y-6.775
X12.475Y-6.675
X9.4125Y-6.025
X9.6625Y-5.925
X10.91Y-3.775
X11.16Y-3.675
X6.785Y-6.775
X7.035Y-6.675
X12.6Y-4.525
X12.85Y-4.425
X3.035Y-5.275
X3.285Y-5.175
X5.1Y-4.525
X5.35Y-4.425
X10.1625Y-6.025
X10.4125Y-5.925
X8.85Y-4.525
X9.1Y-4.425
X7.725Y-5.275
X7.975Y-5.175
X11.1Y-4.525
X11.35Y-4.425
T5
X13.9567Y-2.7165
X13.9567Y-7.8543
X2.6969Y-7.8543
X2.6969Y-2.7165
X4.8122Y-2.8268
X6.6665Y-2.8268
T0
M30
